inDegrees=no
num_controls=7
num_derivatives=13
num_iterations=144
num_multipliers=7
num_parameters=0
num_slacks=7
num_states=26
objective=0.497130
objective_accelerations=0.042385
objective_balance=0.003544
objective_effort=0.039755
objective_height=0.405624
objective_ligament=0.005822
solver_duration=1634.298162
status=Solve_Succeeded
success=true
DataType=double
version=3
OpenSimVersion=4.5
endheader
time	/jointset/ground_pelvis/pelvis_tilt/value	/jointset/ground_pelvis/pelvis_tx/value	/jointset/ground_pelvis/pelvis_ty/value	/jointset/hip_r/hip_flexion_r/value	/jointset/hip_r/hip_adduction_r/value	/jointset/hip_r/hip_rotation_r/value	/jointset/back/lumbar_extension/value	/jointset/patellofemoral_r/patellar_flexion_r/value	/jointset/knee_r/knee_flexion_r/value	/jointset/knee_r/knee_adduction_r/value	/jointset/knee_r/knee_rotation_r/value	/jointset/ankle_r/ankle_angle_r/value	/jointset/subtalar_r/subtalar_angle_r/value	/jointset/ground_pelvis/pelvis_tilt/speed	/jointset/ground_pelvis/pelvis_tx/speed	/jointset/ground_pelvis/pelvis_ty/speed	/jointset/hip_r/hip_flexion_r/speed	/jointset/hip_r/hip_adduction_r/speed	/jointset/hip_r/hip_rotation_r/speed	/jointset/back/lumbar_extension/speed	/jointset/patellofemoral_r/patellar_flexion_r/speed	/jointset/knee_r/knee_flexion_r/speed	/jointset/knee_r/knee_adduction_r/speed	/jointset/knee_r/knee_rotation_r/speed	/jointset/ankle_r/ankle_angle_r/speed	/jointset/subtalar_r/subtalar_angle_r/speed	/forceset/tau_hip_flexion_r	/forceset/tau_hip_adduction_r	/forceset/tau_hip_rotation_r	/forceset/tau_knee_flexion_r	/forceset/tau_ankle_angle_r	/forceset/tau_subtalar_angle_r	/forceset/tau_lumbar_extension	lambda_cid13_p0	lambda_cid14_p0	lambda_cid14_p1	lambda_cid14_p2	lambda_cid14_p3	lambda_cid14_p4	lambda_cid14_p5	/jointset/ground_pelvis/pelvis_tilt/accel	/jointset/ground_pelvis/pelvis_tx/accel	/jointset/ground_pelvis/pelvis_ty/accel	/jointset/hip_r/hip_flexion_r/accel	/jointset/hip_r/hip_adduction_r/accel	/jointset/hip_r/hip_rotation_r/accel	/jointset/back/lumbar_extension/accel	/jointset/patellofemoral_r/patellar_flexion_r/accel	/jointset/knee_r/knee_flexion_r/accel	/jointset/knee_r/knee_adduction_r/accel	/jointset/knee_r/knee_rotation_r/accel	/jointset/ankle_r/ankle_angle_r/accel	/jointset/subtalar_r/subtalar_angle_r/accel	gamma_cid13_p0	gamma_cid14_p0	gamma_cid14_p1	gamma_cid14_p2	gamma_cid14_p3	gamma_cid14_p4	gamma_cid14_p5
0	-0.006515300319704953	0.09626026254278922	0.9427240716323126	0.1762555222360518	-0.2321527352797377	-0.2616399400757435	-0.038598046466844	0.07317863873451017	0.07317863873451017	0.1745327848260892	0.174532228833426	0.03247278518263602	-0.003452034747167559	0	0	0	0	0	0	0	0	0	0	0	0	0	0.2295145666518514	-0.1656018889478338	-0.04587003289498864	-0.4171178831167277	0.420318325687921	-0.1484113020206615	-0.124410929238157	-39.07622986340218	85.25688720333497	-39.7294510775976	-4.397416695600783	-38.58346807637079	-677.3352218094636	57.52416471353981	-1.864321521241895	-1.001127348244469	-0.6120612540706385	8.837312130587275	0.003177186505025201	2.567599549149567	-5.013142377365501	9.610724099924138	9.610724099924198	-2.591893558821651	0.2203344618366961	3.405466455027616	0.7647759102784039	9.863771692247509e-08	4.44497216922876e-08	-7.04356703490039e-07	2.770911099125209e-07	3.842067521560192e-08	3.483355743949512e-08	-4.194420215694885e-07
0.01	-0.006602354588442407	0.09621168762303337	0.9426946038496691	0.1766820065494203	-0.2321520947797358	-0.2615031197053605	-0.03884986924830348	0.07364527851394553	0.07364527851394558	0.1744050064635182	0.1745310907460229	0.03263951754681728	-0.003414220142205156	-0.01737786912289211	-0.009597736124695548	-0.005885144550896839	0.08484676315498954	2.187960342483591e-05	0.02727981972086834	-0.04989398234845275	0.09289955108083277	0.0928995510808331	-0.02520997834115396	-0.0002503032171396107	0.03324946932448434	0.007427937995087881	0.2254876013435112	-0.1773176907813521	-0.04501435549340514	-0.4138444574661397	0.4145047299589478	-0.1355839099127217	-0.1207571516691067	-39.09189528158566	83.89251789815918	-34.47214807193573	-5.150201605247396	-38.8125741817421	-677.7716167188697	67.65282644122753	-1.669568762247848	-0.9215018864758902	-0.5754722922175219	8.240846662404742	-0.01429802169062331	2.795598315418538	-4.906940072068616	9.065290163682713	9.065290163682722	-2.4337748341572	-0.1510426474978467	3.270150157326782	0.7114768422046697	1.187863101945009e-07	2.475249051786145e-08	-8.920163563686459e-07	1.992938542701544e-07	7.545531120706634e-08	-1.642485998561645e-07	-4.080831617097468e-07
0.02	-0.006862197379295776	0.0960706543136518	0.9426065383741929	0.1779434561452288	-0.23215443375749	-0.261096016111396	-0.03958651463494418	0.07502805771449324	0.07502805771449325	0.1740354833450566	0.1745267836396465	0.03313583720147698	-0.003306191337675736	-0.03455770442318336	-0.0184916779251428	-0.01171953856652649	0.1669930564879772	-0.000595895551223768	0.05405664471625955	-0.09696452103624367	0.1832278842224603	0.1832278842224604	-0.04834895117810522	-0.0006338037946214982	0.0659174580956863	0.01404283991340335	0.2214606360351709	-0.1890334926148703	-0.04415867809182183	-0.4105710318155517	0.4086911342299747	-0.1227565178047819	-0.1171033741000564	-39.1381644276349	82.61147862592485	-29.22008095862488	-5.879504108395322	-39.24057250867253	-676.9498521038388	77.55889731690303	-1.82471475672172	-0.8603684833948102	-0.6019111470172009	8.297218166186896	-0.1247537651096627	2.467000604054143	-4.448453645233134	9.096480512083088	9.096480512083051	-2.177692457981113	0.1936949897682409	3.28917034437114	0.6021686949239211	1.389349034665267e-07	5.055259343435313e-09	-1.079676009247253e-06	1.214965986277879e-07	1.124899471985307e-07	-3.633307571518241e-07	-3.96724301850005e-07
0.03	-0.007292424824907317	0.09584284466494764	0.9424601780423599	0.1800145643049408	-0.2321654376723312	-0.2604263269705113	-0.04078142139669425	0.07730228827612814	0.07730228827612814	0.1734436718575202	0.1745203483786367	0.03395472568673858	-0.003135551580252065	-0.05136887915183149	-0.02708696989426208	-0.01755559998069437	0.2468809365017117	-0.001616241816337943	0.0797443363909795	-0.1417581076542353	0.2712150664869186	0.2712150664869181	-0.06984177422935225	-0.0006691532065418173	0.09763453852114271	0.02002316847415472	0.2135623888702433	-0.1919754158230734	-0.04182682415998042	-0.3991227032955627	0.3894561819881333	-0.1126665202120799	-0.1111578781573143	-39.21373922746097	76.84265125101656	-25.91565861180896	-6.329122886249321	-35.29125259243884	-676.2998476245991	82.90348663596833	-1.59147257012284	-0.8615946179124709	-0.5749879361675427	7.782429795819356	-0.09251238501658661	2.59917315035625	-4.456002622328278	8.58933497259633	8.589334972596275	-2.109501106680823	-0.1044729740639577	3.079146141253861	0.5865172875401198	1.625909048046422e-07	4.056002810699101e-09	-1.253229750613657e-06	1.501594624346102e-07	1.344499722890266e-07	-4.779123168550329e-07	-4.764925573643494e-07
0.04	-0.007887194765571029	0.09552858508370389	0.942255350236881	0.1828741226401606	-0.2321870125153844	-0.2595038569726443	-0.04241650231517909	0.08044429023820147	0.08044429023820145	0.1726420473638745	0.1745130950100292	0.03508401882617892	-0.00290699806704302	-0.06746620343361692	-0.03578166443306075	-0.02341303329571402	0.3246830915895513	-0.002710081193623773	0.1046128161127127	-0.1849993523831973	0.3567821643101425	0.3567821643101418	-0.09031155239997234	-0.0007974253141337085	0.127998388931438	0.02562559107048109	0.2056641417045196	-0.1949173390312765	-0.03949497022813911	-0.3876743747755738	0.3702212297462918	-0.1025765226193779	-0.1052123822145723	-39.31701366542381	71.14935998058043	-22.61018231890707	-6.765005782414757	-31.53133929505007	-674.52121857457	88.06020200480658	-1.681944667349176	-0.8802489973306894	-0.6061855271875559	7.880073181007894	-0.1394523875439923	2.303158213456806	-4.137985267427221	8.61246362383625	8.612463623836257	-1.973083481855734	0.1751104506339269	3.01852434133892	0.5265875020389211	1.863192238348421e-07	3.442271528307008e-09	-1.426492648443727e-06	1.810173802506941e-07	1.560991806599148e-07	-5.907515961955106e-07	-5.581397224740359e-07
0.05	-0.008640058909736899	0.09512745437929065	0.9419916184637265	0.1865017258203472	-0.2322200173275346	-0.2583382701025843	-0.04447527855863771	0.08443084888779082	0.08443084888779083	0.1716412042897197	0.1745056664079964	0.03651114433659608	-0.002624193730997641	-0.08301076331619087	-0.04440111554448041	-0.02935105788436577	0.400441919875132	-0.003919369687125199	0.1283552294491181	-0.2264467310927931	0.4401329646513135	0.4401329646513121	-0.1096318861899643	-0.000697924455238325	0.1572687888352529	0.03087114820995679	0.1990012893612252	-0.1827534191756884	-0.03779121110816976	-0.3806154960487889	0.3613159088794408	-0.1081887944660755	-0.09996769514716383	-39.44608522843523	68.17248043046388	-25.60396454880311	-6.247574308383079	-29.69753451196606	-673.1878785201008	80.70597165418485	-1.476315743057889	-0.8462576375024481	-0.590390469231878	7.364448439682788	-0.1161084931336464	2.387449383407674	-4.101739390365996	8.136860640206411	8.136860640206304	-1.877938412410078	-0.07398934226080085	2.857641364521215	0.5137169092576119	1.828050960031219e-07	-5.539643061419246e-09	-1.398958300482364e-06	1.566019755368001e-07	1.634010693149971e-07	-6.752255860806586e-07	-5.382488532765445e-07
